# xmcd
#
# Track frame offsets:
#	150
#	14790
#	28898
#	49716
#	63181
#	78579
#	91310
#	112459
#	131620
#	149156
#
# Disc length: 2324 seconds
#
# Revision: 1
# Processed by: cddbd v1.5.2PL0 Copyright (c) Steve Scherf et al.
# Submitted via: audiograbber 1.83.01
#
DISCID=9809120a
DTITLE=Kevin Seale Band - Ramblin' In My Blood
DYEAR=2007
DGENRE=Texas Country
TTITLE0=Ramblin' In My Blood
TTITLE1=What A Small Town Is
TTITLE2=Luckenback Kind Of Sunday
TTITLE3=Good Lovin' Woman And A Keystone Light
TTITLE4=Honky Tonk
TTITLE5=Hank Wasn't Born In Texas
TTITLE6=Devil's Dirt Road
TTITLE7=Crazy
TTITLE8=Pawpaw
TTITLE9=Little Bad Hombre
EXTD=
EXTT0=
EXTT1=
EXTT2=
EXTT3=
EXTT4=
EXTT5=
EXTT6=
EXTT7=
EXTT8=
EXTT9=
PLAYORDER=
